<svg xmlns="http://www.w3.org/2000/svg" xmlns:xlink="http://www.w3.org/1999/xlink" viewBox="0 0 1920 1080"><defs><style>.a{clip-path:url(#b);}.b{fill:#312783;}.c{fill:#fff;}</style><clipPath id="b"><rect width="1920" height="1080"/></clipPath></defs><g id="a" class="a"><rect class="c" width="1920" height="1080"/><path class="b" d="M989.459,453.78h-.931l92.148-196.5h-13.031l-165.474,356.8L759.141,298.338H555.5v8.377h49.021l44.781,99.077L473.492,847.5h-.827L377,872.221V880.7H575.982v-8.481l-93.906-24.3,27.614-69.292h308.5l3.62,8.067-142,305.4h9.515l79.221-169.2a287.821,287.821,0,0,0,214.5,107.144h20.788c155.364-5.424,278.412-133.118,278.077-288.576s-123.933-282.62-279.318-287.375H989.459ZM814.367,770.248H513l141.066-353.8Zm169.61-306.54a55.066,55.066,0,0,1,7.136,0c66.4,0,120.692,86.874,120.692,192.88V829.3c0,106.11-54.3,192.88-120.692,192.88s-120.8-86.77-120.8-192.88V706.23L984.081,463.708ZM857.39,438.784H860.6l-3.206-1.448Z" transform="translate(74.293 -112.327)"/></g></svg>